<mxfile host="app.diagrams.net" modified="2023-03-08T02:14:10.732Z" agent="5.0 (Macintosh; Intel Mac OS X 10_15_7) AppleWebKit/537.36 (KHTML, like Gecko) Chrome/110.0.0.0 Safari/537.36" etag="2bIbvRhODyzUFXNY8wj1" version="21.0.2" type="github">
  <diagram id="1qVJCfuYaMeoUfc-0dYW" name="Page-1">
    <mxGraphModel dx="1434" dy="828" grid="1" gridSize="10" guides="1" tooltips="1" connect="1" arrows="1" fold="1" page="1" pageScale="1" pageWidth="827" pageHeight="1169" math="0" shadow="0">
      <root>
        <mxCell id="0" />
        <mxCell id="1" parent="0" />
        <mxCell id="QOcSFR8y_e22kkafj4sU-1" value="&lt;b&gt;Bifrost&lt;/b&gt;" style="ellipse;whiteSpace=wrap;html=1;aspect=fixed;" parent="1" vertex="1">
          <mxGeometry x="120" y="210" width="170" height="170" as="geometry" />
        </mxCell>
        <mxCell id="QOcSFR8y_e22kkafj4sU-2" value="&lt;b&gt;Filecoin&lt;/b&gt;" style="ellipse;whiteSpace=wrap;html=1;aspect=fixed;" parent="1" vertex="1">
          <mxGeometry x="550" y="210" width="170" height="170" as="geometry" />
        </mxCell>
        <mxCell id="QOcSFR8y_e22kkafj4sU-10" value="worker" style="ellipse;whiteSpace=wrap;html=1;aspect=fixed;" parent="1" vertex="1">
          <mxGeometry x="681.25" y="320" width="35" height="35" as="geometry" />
        </mxCell>
        <mxCell id="QOcSFR8y_e22kkafj4sU-11" value="SLP module" style="shape=cylinder3;whiteSpace=wrap;html=1;boundedLbl=1;backgroundOutline=1;size=15;" parent="1" vertex="1">
          <mxGeometry x="168.75" y="190" width="72.5" height="60" as="geometry" />
        </mxCell>
        <mxCell id="womPOICztjm91fhaPhi_-1" value="Relayer" style="shape=cylinder3;whiteSpace=wrap;html=1;boundedLbl=1;backgroundOutline=1;size=15;" parent="1" vertex="1">
          <mxGeometry x="390" y="390" width="60" height="80" as="geometry" />
        </mxCell>
        <mxCell id="womPOICztjm91fhaPhi_-3" value="miner" style="ellipse;whiteSpace=wrap;html=1;aspect=fixed;" parent="1" vertex="1">
          <mxGeometry x="671.25" y="375" width="30" height="30" as="geometry" />
        </mxCell>
        <mxCell id="womPOICztjm91fhaPhi_-4" value="miner" style="ellipse;whiteSpace=wrap;html=1;aspect=fixed;" parent="1" vertex="1">
          <mxGeometry x="711.25" y="375" width="30" height="30" as="geometry" />
        </mxCell>
        <mxCell id="womPOICztjm91fhaPhi_-7" value="" style="endArrow=none;dashed=1;html=1;rounded=0;exitX=1;exitY=0.5;exitDx=0;exitDy=0;" parent="1" source="womPOICztjm91fhaPhi_-3" edge="1">
          <mxGeometry width="50" height="50" relative="1" as="geometry">
            <mxPoint x="701.25" y="435" as="sourcePoint" />
            <mxPoint x="711.25" y="390" as="targetPoint" />
          </mxGeometry>
        </mxCell>
        <mxCell id="womPOICztjm91fhaPhi_-11" value="" style="endArrow=classic;html=1;rounded=0;dashed=1;exitX=0.25;exitY=1;exitDx=0;exitDy=0;entryX=1;entryY=0;entryDx=0;entryDy=52.5;entryPerimeter=0;" parent="1" source="AvN2ApZVGemjF6wkjMnb-1" target="womPOICztjm91fhaPhi_-1" edge="1">
          <mxGeometry width="50" height="50" relative="1" as="geometry">
            <mxPoint x="598.75" y="245" as="sourcePoint" />
            <mxPoint x="540" y="510" as="targetPoint" />
          </mxGeometry>
        </mxCell>
        <mxCell id="yuQFEDINcLpY2eNo5cRC-11" value="3. Relay exchange&lt;br&gt;&amp;nbsp;rate info." style="edgeLabel;html=1;align=center;verticalAlign=middle;resizable=0;points=[];" parent="womPOICztjm91fhaPhi_-11" vertex="1" connectable="0">
          <mxGeometry x="0.1474" y="-1" relative="1" as="geometry">
            <mxPoint x="-33" y="19" as="offset" />
          </mxGeometry>
        </mxCell>
        <mxCell id="womPOICztjm91fhaPhi_-12" value="" style="endArrow=classic;html=1;rounded=0;dashed=1;entryX=0.5;entryY=1;entryDx=0;entryDy=0;entryPerimeter=0;exitX=0;exitY=0;exitDx=0;exitDy=52.5;exitPerimeter=0;" parent="1" source="womPOICztjm91fhaPhi_-1" target="QOcSFR8y_e22kkafj4sU-11" edge="1">
          <mxGeometry width="50" height="50" relative="1" as="geometry">
            <mxPoint x="200" y="450" as="sourcePoint" />
            <mxPoint x="280" y="510" as="targetPoint" />
          </mxGeometry>
        </mxCell>
        <mxCell id="womPOICztjm91fhaPhi_-15" value="vFIL Clearing - FVM" style="text;html=1;strokeColor=none;fillColor=none;align=center;verticalAlign=middle;whiteSpace=wrap;rounded=0;fontStyle=1;fontSize=24;" parent="1" vertex="1">
          <mxGeometry x="88" y="60" width="260" height="30" as="geometry" />
        </mxCell>
        <mxCell id="yuQFEDINcLpY2eNo5cRC-3" value="worker" style="ellipse;whiteSpace=wrap;html=1;aspect=fixed;" parent="1" vertex="1">
          <mxGeometry x="721.25" y="320" width="35" height="35" as="geometry" />
        </mxCell>
        <mxCell id="yuQFEDINcLpY2eNo5cRC-4" value="" style="endArrow=none;dashed=1;html=1;rounded=0;exitX=1;exitY=0.5;exitDx=0;exitDy=0;entryX=0;entryY=0.5;entryDx=0;entryDy=0;" parent="1" source="QOcSFR8y_e22kkafj4sU-10" target="yuQFEDINcLpY2eNo5cRC-3" edge="1">
          <mxGeometry width="50" height="50" relative="1" as="geometry">
            <mxPoint x="711.25" y="495" as="sourcePoint" />
            <mxPoint x="761.25" y="445" as="targetPoint" />
          </mxGeometry>
        </mxCell>
        <mxCell id="yuQFEDINcLpY2eNo5cRC-6" value="" style="curved=1;endArrow=classic;html=1;rounded=0;exitX=0.5;exitY=1;exitDx=0;exitDy=0;entryX=0.5;entryY=1;entryDx=0;entryDy=0;" parent="1" source="womPOICztjm91fhaPhi_-3" target="AvN2ApZVGemjF6wkjMnb-1" edge="1">
          <mxGeometry width="50" height="50" relative="1" as="geometry">
            <mxPoint x="630" y="490" as="sourcePoint" />
            <mxPoint x="635" y="260" as="targetPoint" />
            <Array as="points">
              <mxPoint x="680" y="490" />
              <mxPoint x="630" y="440" />
            </Array>
          </mxGeometry>
        </mxCell>
        <mxCell id="yuQFEDINcLpY2eNo5cRC-7" value="1. Transfer rewards and&amp;nbsp;&lt;br&gt;due intial pledge&lt;br&gt;&amp;nbsp;to the contract.&amp;nbsp;" style="edgeLabel;html=1;align=center;verticalAlign=middle;resizable=0;points=[];" parent="yuQFEDINcLpY2eNo5cRC-6" vertex="1" connectable="0">
          <mxGeometry x="0.0339" y="-4" relative="1" as="geometry">
            <mxPoint x="26" y="18" as="offset" />
          </mxGeometry>
        </mxCell>
        <mxCell id="yuQFEDINcLpY2eNo5cRC-13" value="" style="curved=1;endArrow=classic;html=1;rounded=0;exitX=0.855;exitY=0;exitDx=0;exitDy=4.35;exitPerimeter=0;entryX=0.293;entryY=0;entryDx=0;entryDy=0;entryPerimeter=0;" parent="1" source="QOcSFR8y_e22kkafj4sU-11" target="QOcSFR8y_e22kkafj4sU-11" edge="1">
          <mxGeometry width="50" height="50" relative="1" as="geometry">
            <mxPoint x="220" y="170" as="sourcePoint" />
            <mxPoint x="270" y="120" as="targetPoint" />
            <Array as="points">
              <mxPoint x="270" y="170" />
              <mxPoint x="190" y="160" />
            </Array>
          </mxGeometry>
        </mxCell>
        <mxCell id="yuQFEDINcLpY2eNo5cRC-14" value="4. Adjust exchange rate" style="edgeLabel;html=1;align=center;verticalAlign=middle;resizable=0;points=[];" parent="yuQFEDINcLpY2eNo5cRC-13" vertex="1" connectable="0">
          <mxGeometry x="0.3588" y="1" relative="1" as="geometry">
            <mxPoint as="offset" />
          </mxGeometry>
        </mxCell>
        <mxCell id="yuQFEDINcLpY2eNo5cRC-21" value="" style="curved=1;endArrow=classic;html=1;rounded=0;dashed=1;entryX=0;entryY=0;entryDx=0;entryDy=0;" parent="1" target="AvN2ApZVGemjF6wkjMnb-1" edge="1">
          <mxGeometry width="50" height="50" relative="1" as="geometry">
            <mxPoint x="671" y="210" as="sourcePoint" />
            <mxPoint x="610.25" y="170" as="targetPoint" />
            <Array as="points">
              <mxPoint x="671" y="200" />
              <mxPoint x="671.25" y="170" />
              <mxPoint x="621.25" y="120" />
            </Array>
          </mxGeometry>
        </mxCell>
        <mxCell id="yuQFEDINcLpY2eNo5cRC-22" value="3. Calculate interest,tune &lt;br&gt;vFil/FIL exchange rate&lt;br&gt;and charge hosting fee" style="edgeLabel;html=1;align=center;verticalAlign=middle;resizable=0;points=[];" parent="yuQFEDINcLpY2eNo5cRC-21" vertex="1" connectable="0">
          <mxGeometry x="-0.1757" y="2" relative="1" as="geometry">
            <mxPoint as="offset" />
          </mxGeometry>
        </mxCell>
        <mxCell id="AvN2ApZVGemjF6wkjMnb-1" value="vFil contract" style="swimlane;whiteSpace=wrap;html=1;fillColor=#f8cecc;strokeColor=#b85450;" vertex="1" parent="1">
          <mxGeometry x="600" y="200" width="90" height="40" as="geometry" />
        </mxCell>
        <mxCell id="AvN2ApZVGemjF6wkjMnb-2" value="" style="endArrow=none;dashed=1;html=1;dashPattern=1 3;strokeWidth=2;rounded=0;entryX=1;entryY=1;entryDx=0;entryDy=0;exitX=0.5;exitY=0;exitDx=0;exitDy=0;" edge="1" parent="1" source="womPOICztjm91fhaPhi_-3" target="QOcSFR8y_e22kkafj4sU-2">
          <mxGeometry width="50" height="50" relative="1" as="geometry">
            <mxPoint x="660" y="420" as="sourcePoint" />
            <mxPoint x="710" y="370" as="targetPoint" />
          </mxGeometry>
        </mxCell>
        <mxCell id="AvN2ApZVGemjF6wkjMnb-3" value="" style="endArrow=none;dashed=1;html=1;dashPattern=1 3;strokeWidth=2;rounded=0;entryX=0.5;entryY=1;entryDx=0;entryDy=0;exitX=0.5;exitY=0;exitDx=0;exitDy=0;" edge="1" parent="1" source="womPOICztjm91fhaPhi_-4" target="yuQFEDINcLpY2eNo5cRC-3">
          <mxGeometry width="50" height="50" relative="1" as="geometry">
            <mxPoint x="730" y="520" as="sourcePoint" />
            <mxPoint x="780" y="470" as="targetPoint" />
          </mxGeometry>
        </mxCell>
        <mxCell id="AvN2ApZVGemjF6wkjMnb-5" value="SP commission contract" style="swimlane;whiteSpace=wrap;html=1;fillColor=#f8cecc;strokeColor=#b85450;" vertex="1" parent="1">
          <mxGeometry x="688.75" y="260" width="100" height="35" as="geometry" />
        </mxCell>
        <mxCell id="AvN2ApZVGemjF6wkjMnb-7" value="" style="curved=1;endArrow=classic;html=1;rounded=0;exitX=1;exitY=0.25;exitDx=0;exitDy=0;entryX=0.633;entryY=-0.157;entryDx=0;entryDy=0;entryPerimeter=0;" edge="1" parent="1" source="AvN2ApZVGemjF6wkjMnb-1" target="AvN2ApZVGemjF6wkjMnb-5">
          <mxGeometry width="50" height="50" relative="1" as="geometry">
            <mxPoint x="720" y="220" as="sourcePoint" />
            <mxPoint x="770" y="170" as="targetPoint" />
            <Array as="points">
              <mxPoint x="770" y="220" />
            </Array>
          </mxGeometry>
        </mxCell>
        <mxCell id="AvN2ApZVGemjF6wkjMnb-8" value="2. Transfer &lt;br&gt;SP commission." style="edgeLabel;html=1;align=center;verticalAlign=middle;resizable=0;points=[];" vertex="1" connectable="0" parent="AvN2ApZVGemjF6wkjMnb-7">
          <mxGeometry x="-0.5237" y="-2" relative="1" as="geometry">
            <mxPoint x="32" y="5" as="offset" />
          </mxGeometry>
        </mxCell>
      </root>
    </mxGraphModel>
  </diagram>
</mxfile>
